HIERARCHY
ROOT Hips
{
	OFFSET 0.00000 0.00000 0.00000
	CHANNELS 6 Xposition Yposition Zposition Zrotation Yrotation Xrotation 
	JOINT LHipJoint
	{
		OFFSET 0 0 0
		CHANNELS 3 Zrotation Yrotation Xrotation
		JOINT LeftUpLeg
		{
			OFFSET 1.54859 -1.61379 0.86856
			CHANNELS 3 Zrotation Yrotation Xrotation
			JOINT LeftLeg
			{
				OFFSET 2.25087 -6.18423 0.00000
				CHANNELS 3 Zrotation Yrotation Xrotation
				JOINT LeftFoot
				{
					OFFSET 2.40328 -6.60297 0.00000
					CHANNELS 3 Zrotation Yrotation Xrotation
					JOINT LeftToeBase
					{
						OFFSET 0.17435 -0.47901 2.02453
						CHANNELS 3 Zrotation Yrotation Xrotation
						End Site
						{
							OFFSET 0.00000 -0.00000 1.04844
						}
					}
				}
			}
		}
	}
	JOINT RHipJoint
	{
		OFFSET 0 0 0
		CHANNELS 3 Zrotation Yrotation Xrotation
		JOINT RightUpLeg
		{
			OFFSET -1.54669 -1.61379 0.86856
			CHANNELS 3 Zrotation Yrotation Xrotation
			JOINT RightLeg
			{
				OFFSET -2.28132 -6.26789 0.00000
				CHANNELS 3 Zrotation Yrotation Xrotation
				JOINT RightFoot
				{
					OFFSET -2.51636 -6.91365 0.00000
					CHANNELS 3 Zrotation Yrotation Xrotation
					JOINT RightToeBase
					{
						OFFSET -0.15124 -0.41552 2.21090
						CHANNELS 3 Zrotation Yrotation Xrotation
						End Site
						{
							OFFSET -0.00000 -0.00000 1.13399
						}
					}
				}
			}
		}
	}
	JOINT LowerBack
	{
		OFFSET 0 0 0
		CHANNELS 3 Zrotation Yrotation Xrotation
		JOINT Spine
		{
			OFFSET -0.04287 2.26161 -0.25690
			CHANNELS 3 Zrotation Yrotation Xrotation
			JOINT Spine1
			{
				OFFSET 0.02248 2.28395 -0.10140
				CHANNELS 3 Zrotation Yrotation Xrotation
				JOINT Neck
				{
					OFFSET 0 0 0
					CHANNELS 3 Zrotation Yrotation Xrotation
					JOINT Neck1
					{
						OFFSET -0.11644 1.38496 0.11345
						CHANNELS 3 Zrotation Yrotation Xrotation
						JOINT Head
						{
							OFFSET 0.29383 1.36600 0.06642
							CHANNELS 3 Zrotation Yrotation Xrotation
							End Site
							{
								OFFSET 0.11075 1.41395 -0.00294
							}
						}
					}
				}
				JOINT LeftShoulder
				{
					OFFSET 0 0 0
					CHANNELS 3 Zrotation Yrotation Xrotation
					JOINT LeftArm
					{
						OFFSET 3.51628 0.59542 -0.30346
						CHANNELS 3 Zrotation Yrotation Xrotation
						JOINT LeftForeArm
						{
							OFFSET 4.76405 -0.00000 0.00000
							CHANNELS 3 Zrotation Yrotation Xrotation
							JOINT LeftHand
							{
								OFFSET 3.13759 -0.00000 -0.00000
								CHANNELS 3 Zrotation Yrotation Xrotation
								JOINT LeftFingerBase
								{
									OFFSET 0 0 0
									CHANNELS 3 Zrotation Yrotation Xrotation
									JOINT LeftHandIndex1
									{
										OFFSET 0.73226 -0.00000 -0.00000
										CHANNELS 3 Zrotation Yrotation Xrotation
										End Site
										{
											OFFSET 0.59037 -0.00000 -0.00000
										}
									}
								}
								JOINT LThumb
								{
									OFFSET 0 0 0
									CHANNELS 3 Zrotation Yrotation Xrotation
									End Site
									{
										OFFSET 0.59938 -0.00000 0.59938
									}
								}
							}
						}
					}
				}
				JOINT RightShoulder
				{
					OFFSET 0 0 0
					CHANNELS 3 Zrotation Yrotation Xrotation
					JOINT RightArm
					{
						OFFSET -3.30990 0.84213 -0.36430
						CHANNELS 3 Zrotation Yrotation Xrotation
						JOINT RightForeArm
						{
							OFFSET -5.10161 -0.00000 -0.00000
							CHANNELS 3 Zrotation Yrotation Xrotation
							JOINT RightHand
							{
								OFFSET -3.23267 -0.00000 -0.00000
								CHANNELS 3 Zrotation Yrotation Xrotation
								JOINT RightFingerBase
								{
									OFFSET 0 0 0
									CHANNELS 3 Zrotation Yrotation Xrotation
									JOINT RightHandIndex1
									{
										OFFSET -0.70200 -0.00000 -0.00000
										CHANNELS 3 Zrotation Yrotation Xrotation
										End Site
										{
											OFFSET -0.56597 -0.00000 -0.00000
										}
									}
								}
								JOINT RThumb
								{
									OFFSET 0 0 0
									CHANNELS 3 Zrotation Yrotation Xrotation
									End Site
									{
										OFFSET -0.57461 -0.00000 0.57461
									}
								}
							}
						}
					}
				}
			}
		}
	}
}
MOTION
Frames: 9
Frame Time: .0083333
-15.7684 13.7990 -1.2997 -193.5620 22.7323 -173.9310 0.0000 0.0000 0.0000 2.4191 8.5761 -16.4561 3.4608 11.4061 33.6620 -0.4810 14.1150 2.4392 4.8766 -13.2434 -40.2866 0.0000 0.0000 0.0000 10.8488 -2.0944 -59.0736 -15.9487 -19.6019 78.0790 2.2939 -25.9234 -5.9030 -6.2924 14.7059 -46.1443 -8.5451 -1.1641 35.0997 -6.8778 -2.1207 9.4300 -2.1566 0.3246 -7.0711 -14.0599 -4.1565 -2.5300 20.1228 -0.9488 -21.3932 9.0821 0.2194 -5.4806 -0.0000 -0.0000 0.0000 -66.7032 13.6129 6.7497 75.3620 -59.1747 -47.3583 -0.0000 0.0000 -26.3718 47.5449 13.8639 14.6765 -7.1250 0.0000 -0.0000 20.0000 48.9880 2.0415 -0.0000 -0.0000 0.0000 61.3404 14.9019 0.2586 -92.5641 59.9751 -62.2204 0.0000 -0.0000 -28.2105 -66.2102 42.0923 -56.6691 7.1250 -0.0000 -0.0000 -13.4057 34.7242 -18.9243
-15.4424 13.8748 -1.2858 -193.4070 22.2604 -174.3710 0.0000 0.0000 0.0000 2.0764 10.6182 -19.2619 4.2433 12.4773 37.4422 -0.2618 10.8258 2.4163 4.6873 -13.0227 -39.4535 0.0000 0.0000 0.0000 12.3168 -2.2483 -57.5340 -15.7803 -19.5676 77.5765 2.2452 -25.7058 -5.6004 -6.1287 14.5519 -45.4961 -9.3720 -0.8576 35.4727 -6.5412 -1.9388 9.5125 -1.5005 0.4336 -6.9055 -14.2338 -4.1440 -2.3781 20.4235 -0.9740 -21.1417 9.2155 0.1803 -5.4135 -0.0000 0.0000 0.0000 -66.3737 13.3633 8.2779 75.5684 -59.1982 -47.5355 -0.0000 0.0000 -25.8548 47.2020 13.5940 14.2430 -7.1250 0.0000 -0.0000 19.5554 48.5521 1.7762 -0.0000 0.0000 0.0000 60.2898 14.9440 -0.8703 -95.8761 59.8691 -65.0866 0.0000 -0.0000 -29.3330 -66.2709 41.9754 -56.6851 7.1250 -0.0000 -0.0000 -13.4974 34.6708 -19.0547
-15.1447 13.9589 -1.2701 -193.0330 21.3268 -174.1020 0.0000 0.0000 0.0000 1.4792 11.9302 -23.1079 5.2158 13.6228 41.7470 -0.1693 8.5796 1.7170 4.6785 -13.0123 -39.4145 0.0000 0.0000 0.0000 13.8763 -2.7747 -56.9303 -15.6505 -19.5403 77.1887 2.0906 -24.8089 -5.8934 -5.9140 14.3445 -44.6356 -9.3565 -0.9391 35.2602 -6.1818 -1.9636 9.6304 -1.1118 0.4025 -6.6814 -14.5546 -4.1584 -2.0635 20.7688 -1.0136 -21.1243 9.4088 0.1412 -5.4404 -0.0000 -0.0000 0.0000 -66.0005 12.7910 10.0704 75.4384 -59.1834 -47.4238 -0.0000 0.0000 -25.3324 46.8122 13.4416 13.9092 -7.1250 0.0000 -0.0000 19.1006 48.2645 1.5923 -0.0000 -0.0000 0.0000 59.1207 14.6782 -2.1975 -99.0718 59.6867 -67.8481 0.0000 -0.0000 -30.7304 -66.4145 41.9397 -56.8460 7.1250 -0.0000 -0.0000 -13.5830 34.7503 -19.1832
-14.8514 14.0351 -1.2430 -192.5500 20.2903 -173.8770 0.0000 0.0000 0.0000 0.7862 12.9680 -26.9217 6.2874 14.7012 46.1244 -0.1508 7.5543 0.5943 4.4452 -12.7303 -38.3672 0.0000 0.0000 0.0000 15.5075 -3.5076 -56.4999 -15.5482 -19.5180 76.8825 1.8518 -23.3933 -6.0699 -5.8144 14.2461 -44.2323 -9.2090 -1.0531 35.3755 -5.8548 -2.0201 9.7006 -0.8207 0.3717 -6.6398 -14.6955 -4.2331 -1.6808 21.2918 -1.0747 -21.2211 9.6418 0.0745 -5.5057 0.0000 -0.0000 0.0000 -65.3701 12.0196 11.9330 75.0607 -59.1397 -47.0995 -0.0000 0.0000 -25.0165 46.3339 13.3993 13.6466 -7.1250 0.0000 -0.0000 18.5864 48.1057 1.4717 0.0000 -0.0000 0.0000 58.4133 14.2482 -3.6587 -102.1723 59.4327 -70.5214 0.0000 -0.0000 -31.6743 -66.5061 42.4063 -57.1954 7.1250 -0.0000 -0.0000 -13.3692 35.2150 -18.8950
-14.5477 14.1060 -1.2134 -191.9620 19.2581 -173.7090 0.0000 0.0000 0.0000 0.0603 13.8672 -30.6221 7.4486 15.6983 50.5511 -0.1651 7.4822 -0.5067 4.4687 -12.7592 -38.4738 0.0000 0.0000 0.0000 17.2884 -4.4620 -56.2309 -15.4796 -19.5029 76.6774 1.5649 -21.5767 -6.0769 -5.8457 14.2772 -44.3594 -9.1661 -1.1314 35.6307 -5.5285 -2.0583 9.7954 -0.4864 0.3587 -6.6121 -14.7647 -4.3072 -1.4959 22.0462 -1.0616 -21.1992 9.9376 0.0451 -5.5060 0.0000 0.0000 0.0000 -64.6295 11.0189 13.6759 74.5112 -59.0738 -46.6280 -0.0000 0.0000 -24.7196 46.0471 13.3670 13.4847 -7.1250 0.0000 -0.0000 18.2780 48.0025 1.3978 0.0000 0.0000 0.0000 58.0089 13.9195 -5.1880 -105.0339 59.1285 -72.9817 0.0000 -0.0000 -32.3986 -66.4157 42.9752 -57.3636 7.1250 -0.0000 -0.0000 -13.0109 35.6221 -18.3933
-14.2396 14.1876 -1.1899 -191.3480 18.3340 -173.4480 0.0000 0.0000 0.0000 -0.8773 14.6204 -34.2444 8.6356 16.5674 54.8211 -0.2039 8.0450 -1.8290 4.6450 -12.9725 -39.2658 0.0000 0.0000 0.0000 19.0419 -5.4056 -56.1271 -15.4322 -19.4922 76.5351 1.2596 -19.4053 -6.6407 -5.8786 14.3096 -44.4924 -9.1694 -1.1369 35.7132 -5.1714 -2.0052 9.9069 -0.1255 0.3790 -6.5030 -14.7280 -4.3437 -1.2541 22.7267 -0.9812 -21.2687 10.1948 0.0469 -5.5634 0.0000 -0.0000 0.0000 -63.8768 9.8820 15.5338 74.0588 -59.0177 -46.2400 -0.0000 0.0000 -24.3894 45.9319 13.4782 13.5382 -7.1250 0.0000 -0.0000 18.1845 48.1245 1.4464 0.0000 -0.0000 0.0000 57.5415 13.6587 -7.1656 -106.8510 58.8994 -74.5395 0.0000 -0.0000 -32.7183 -66.5788 43.5192 -57.8271 7.1250 -0.0000 -0.0000 -12.7753 36.1923 -18.0756
-13.9309 14.2746 -1.1671 -190.6580 17.4859 -173.1190 0.0000 0.0000 0.0000 -1.9274 15.2579 -37.7711 9.8226 17.3089 58.8938 -0.2393 8.6431 -3.5558 4.2561 -12.4936 -37.5013 0.0000 0.0000 0.0000 20.7789 -6.3196 -56.0959 -15.4135 -19.4880 76.4793 0.9426 -16.9471 -7.9121 -5.7986 14.2303 -44.1679 -9.1526 -1.0733 35.7313 -4.7457 -1.8468 10.0412 0.2617 0.4422 -6.3516 -14.5485 -4.3914 -0.8405 23.2390 -0.8923 -21.6307 10.3853 0.0485 -5.7529 0.0000 0.0000 0.0000 -63.1745 8.6516 17.4830 73.7355 -58.9765 -45.9630 -0.0000 0.0000 -24.1662 45.8432 13.5295 13.5464 -7.1250 0.0000 -0.0000 18.1039 48.1730 1.4619 0.0000 0.0000 0.0000 57.0864 13.3005 -8.9332 -108.5669 58.6565 -76.0069 0.0000 -0.0000 -34.0533 -66.4434 43.4792 -57.6409 7.1250 -0.0000 -0.0000 -12.7378 36.0586 -18.0158
-13.6164 14.3598 -1.1408 -189.8070 16.7669 -172.7040 0.0000 0.0000 0.0000 -2.9558 15.9670 -41.2345 10.9842 17.9273 62.7302 -0.2296 8.6364 -5.0220 3.7110 -11.7656 -34.9078 0.0000 0.0000 0.0000 22.5934 -7.1485 -56.2089 -15.4298 -19.4917 76.5279 0.5857 -13.9480 -9.2886 -5.6070 14.0364 -43.3834 -9.1430 -0.9757 35.7344 -4.3024 -1.6609 10.1512 0.6618 0.5133 -6.2257 -14.4375 -4.5465 -0.6837 24.0195 -0.8948 -21.8349 10.6788 0.0147 -5.8173 0.0000 -0.0000 0.0000 -62.5673 7.4922 19.1240 73.4779 -58.9430 -45.7422 -0.0000 0.0000 -23.9119 45.6500 13.2002 13.1483 -7.1250 0.0000 -0.0000 17.8250 47.7006 1.2246 0.0000 -0.0000 0.0000 56.7975 12.9852 -10.3163 -110.0928 58.4182 -77.3085 0.0000 -0.0000 -35.3808 -66.1848 43.2297 -57.2021 7.1250 -0.0000 -0.0000 -12.7634 35.6603 -18.0361
-13.3235 14.4441 -1.1155 -188.7290 16.0195 -172.1140 0.0000 0.0000 0.0000 -3.9479 16.4342 -44.7874 12.1272 18.4439 66.3915 -0.1757 7.9288 -5.9150 3.3703 -11.2716 -33.2014 0.0000 0.0000 0.0000 24.4265 -8.0471 -56.6487 -15.4929 -19.5058 76.7169 0.2026 -10.3463 -10.8432 -5.4820 13.9069 -42.8657 -8.6111 -1.0748 35.7028 -3.9506 -1.5738 10.2204 0.7338 0.5385 -6.1713 -14.1900 -4.6760 -0.6392 24.7957 -0.8387 -21.9470 10.9382 0.0106 -5.8487 -0.0000 -0.0000 0.0000 -62.0473 6.3600 20.3925 73.2360 -58.9110 -45.5350 -0.0000 0.0000 -23.4246 44.9907 12.5169 12.2246 -7.1250 0.0000 -0.0000 16.9977 46.6737 0.7224 -0.0000 -0.0000 0.0000 56.8469 12.7437 -11.6413 -111.3036 58.2137 -78.3388 0.0000 -0.0000 -36.6988 -65.8605 43.2250 -56.8008 7.1250 -0.0000 -0.0000 -12.6205 35.4155 -17.8185
